<?xml version="1.0" encoding="utf-8"?>
<!-- Generator: Adobe Illustrator 16.0.0, SVG Export Plug-In . SVG Version: 6.00 Build 0)  -->
<!DOCTYPE svg PUBLIC "-//W3C//DTD SVG 1.1//EN" "http://www.w3.org/Graphics/SVG/1.1/DTD/svg11.dtd">
<svg version="1.1" id="Livello_1" xmlns="http://www.w3.org/2000/svg" xmlns:xlink="http://www.w3.org/1999/xlink" x="0px" y="0px"
	 width="595.279px" height="595.279px" viewBox="0 0 595.279 595.279" enable-background="new 0 0 595.279 595.279"
	 xml:space="preserve">
<g>
	<path fill="#FFFFFF" d="M84.418,129.117l78.951,171.39l78.648-171.39h79.276l-158.545,326.18L5.453,129.117H84.418z"/>
</g>
<g>
	<path fill="#FFFFFF" d="M287.195,380.133l115.672-251.015h79.27l-158.548,326.18L287.195,380.133z"/>
</g>
<g>
	<path fill="#FFFFFF" d="M507.285,133.815h-16.148v-5.83h39.31v5.83h-16.227v47.268h-6.935V133.815L507.285,133.815z"/>
	<path fill="#FFFFFF" d="M581.099,157.762c-0.394-7.405-0.865-16.304-0.783-22.925h-0.236c-1.811,6.226-4.019,12.839-6.695,20.168
		l-9.374,25.763h-5.199l-8.587-25.29c-2.521-7.484-4.646-14.336-6.148-20.641h-0.154c-0.158,6.617-0.551,15.521-1.027,23.477
		l-1.416,22.766h-6.538l3.703-53.097h8.745l9.058,25.679c2.208,6.54,4.019,12.368,5.358,17.884h0.229
		c1.342-5.356,3.237-11.186,5.598-17.884l9.451-25.679h8.744l3.312,53.097h-6.7L581.099,157.762z"/>
</g>
</svg>
